<svg width="381" height="165" viewBox="0 0 381 165" fill="none" xmlns="http://www.w3.org/2000/svg">
<path d="M0 162.611L16.0612 66.5186H77.5605L74.6777 83.678H31.9851L28.1414 106.74H63.6957L60.8129 123.9H25.2586L18.8067 162.611H0Z" fill="black"/>
<path d="M112.005 162.611L113.377 149.845L122.712 93.9737H140.832L129.301 162.611H112.005ZM92.0997 164.259C85.8766 164.259 80.6143 162.84 76.3131 160.003C72.0118 157.075 68.8544 153.048 66.8411 147.923C64.9192 142.706 64.3244 136.666 65.0565 129.803C65.6056 124.495 66.7953 119.553 68.6256 114.977C70.5475 110.401 73.0185 106.42 76.0385 103.034C79.1501 99.6477 82.7192 97.0395 86.746 95.2092C90.7727 93.2873 95.257 92.3264 100.199 92.3264C106.331 92.3264 111.181 93.7906 114.75 96.7192C118.411 99.6477 120.928 103.674 122.3 108.799C123.765 113.833 124.085 119.736 123.261 126.508C122.712 132.64 121.522 138.039 119.692 142.706C117.953 147.374 115.665 151.309 112.828 154.512C110.083 157.715 106.925 160.14 103.356 161.788C99.8786 163.435 96.1265 164.259 92.0997 164.259ZM98.0025 147.648C100.748 147.648 103.219 147.053 105.415 145.864C107.703 144.674 109.671 143.072 111.318 141.059C113.057 138.954 114.384 136.621 115.299 134.058C116.306 131.404 116.901 128.704 117.084 125.959C117.541 120.925 116.489 116.853 113.926 113.741C111.364 110.63 107.932 109.074 103.631 109.074C100.794 109.074 98.1856 109.669 95.8061 110.859C93.5182 112.048 91.5049 113.65 89.766 115.663C88.0272 117.585 86.6087 119.827 85.5105 122.39C84.5038 124.952 83.909 127.652 83.7259 130.489C83.4514 135.431 84.5953 139.549 87.1578 142.844C89.8118 146.047 93.4267 147.648 98.0025 147.648Z" fill="black"/>
<path d="M169.615 164.259C162.66 164.259 156.711 162.749 151.769 159.729C146.919 156.617 143.258 152.544 140.787 147.511C138.316 142.386 137.31 136.712 137.767 130.489C138.316 122.893 140.33 116.258 143.807 110.584C147.376 104.818 151.998 100.334 157.672 97.131C163.438 93.9279 169.752 92.3264 176.616 92.3264C181.924 92.3264 186.729 93.1958 191.03 94.9346C195.331 96.6734 198.946 99.0529 201.875 102.073C204.895 105.093 206.908 108.571 207.915 112.506L190.344 117.86C189.245 115.023 187.507 112.872 185.127 111.408C182.839 109.943 180.002 109.211 176.616 109.211C173.047 109.211 169.798 110.081 166.869 111.819C164.032 113.467 161.653 115.8 159.731 118.82C157.901 121.841 156.803 125.41 156.437 129.528C156.071 132.823 156.391 135.843 157.397 138.588C158.496 141.242 160.189 143.393 162.477 145.04C164.856 146.596 167.785 147.374 171.262 147.374C174.831 147.374 178.08 146.504 181.009 144.766C184.029 142.935 186.363 140.602 188.01 137.764L203.797 144.628C200.136 151.126 195.331 156.022 189.383 159.317C183.526 162.611 176.936 164.259 169.615 164.259Z" fill="black"/>
<path d="M231.358 164.259C223.762 164.259 218.362 162.382 215.159 158.63C211.956 154.787 210.949 149.387 212.139 142.432L223.807 72.5587H241.928L230.808 138.588C230.351 141.608 230.58 143.85 231.495 145.315C232.41 146.779 234.103 147.511 236.574 147.511C237.489 147.511 238.542 147.282 239.731 146.825C241.013 146.367 242.34 145.772 243.712 145.04L247.968 158.63C245.314 160.369 242.523 161.742 239.594 162.749C236.666 163.755 233.92 164.259 231.358 164.259ZM206.511 109.349L209.119 93.9737H255.518L252.91 109.349H206.511Z" fill="black"/>
<path d="M282.62 164.259C275.39 164.259 269.076 162.657 263.676 159.454C258.277 156.251 254.341 151.812 251.87 146.138C249.399 140.373 248.805 133.738 250.086 126.233C251.184 119.553 253.563 113.65 257.224 108.525C260.885 103.4 265.461 99.4189 270.952 96.5819C276.443 93.7449 282.437 92.3264 288.935 92.3264C296.256 92.3264 302.571 93.9279 307.879 97.131C313.278 100.334 317.168 104.818 319.547 110.584C322.018 116.258 322.613 122.847 321.332 130.352C320.233 137.032 317.854 142.935 314.193 148.06C310.533 153.185 305.957 157.166 300.466 160.003C295.066 162.84 289.118 164.259 282.62 164.259ZM283.169 147.511C286.372 147.511 289.347 146.733 292.092 145.177C294.929 143.622 297.308 141.425 299.23 138.588C301.152 135.751 302.433 132.457 303.074 128.704C303.715 124.678 303.486 121.2 302.388 118.271C301.289 115.343 299.551 113.101 297.171 111.545C294.792 109.898 291.863 109.074 288.386 109.074C285.183 109.074 282.162 109.852 279.325 111.408C276.58 112.963 274.246 115.16 272.324 117.997C270.403 120.834 269.076 124.128 268.343 127.881C267.703 131.907 267.932 135.385 269.03 138.314C270.128 141.242 271.913 143.53 274.384 145.177C276.854 146.733 279.783 147.511 283.169 147.511Z" fill="black"/>
<path d="M343.564 164.259C338.713 164.259 334.412 163.572 330.66 162.199C326.999 160.735 324.071 158.813 321.874 156.434C319.678 154.054 318.305 151.309 317.756 148.197L333.543 142.706C334.366 145.543 335.876 147.603 338.073 148.884C340.269 150.073 342.511 150.668 344.799 150.668C346.721 150.668 348.551 150.348 350.29 149.707C352.029 149.067 353.447 148.152 354.546 146.962C355.644 145.772 356.193 144.262 356.193 142.432C356.193 140.693 355.461 139.275 353.997 138.176C352.532 137.078 350.244 136.071 347.133 135.156L341.367 133.646C336.151 132.273 332.17 130.123 329.424 127.194C326.77 124.174 325.443 120.651 325.443 116.624C325.443 111.682 326.77 107.381 329.424 103.72C332.078 100.06 335.693 97.2683 340.269 95.3464C344.936 93.3331 350.336 92.3264 356.467 92.3264C363.789 92.3264 369.326 93.7449 373.078 96.5819C376.921 99.3274 379.438 102.988 380.628 107.564L365.253 112.918C364.704 110.447 363.514 108.708 361.684 107.701C359.854 106.603 357.383 106.054 354.271 106.054C351.434 106.054 348.963 106.832 346.858 108.388C344.753 109.852 343.701 111.682 343.701 113.879C343.701 115.16 344.433 116.35 345.897 117.448C347.362 118.546 349.604 119.507 352.624 120.331L358.115 121.703C363.972 123.168 368.365 125.547 371.293 128.842C374.313 132.136 375.823 136.026 375.823 140.51C375.823 145.635 374.313 149.982 371.293 153.551C368.273 157.029 364.292 159.683 359.35 161.513C354.5 163.343 349.238 164.259 343.564 164.259Z" fill="black"/>
<path d="M239.282 28.5477L266.243 50.7514L312.237 0L328.097 14.2738L269.415 80.8851L226.594 44.4075L239.282 28.5477Z" fill="#93FF00"/>
</svg>
